# xmcd
# Track frame offsets:
# 150
# 14550
# 28095
# 44112
# 55562
# 69872
# 86652
# 97720
# 113867
# 132790
# 149170
# 162355
# 176987
# 192272
# 206825
# 219192
# 229200
# 247460
# 261437
# 275542
#
# Disc length: 3843 seconds
# Revision: 4
# Processed by: cddbd v1.5.2PL0 Copyright (c) Steve Scherf et al.
# Submitted via: VisiTrax 2.11.3.279 - For more info visit www.synapsa.com
#
DISCID=360f0114
DTITLE=Slim Dusty - A Land He Calls His Own Disc 2
DYEAR=1992
DGENRE=Australian Country
TTITLE0=Slim Dusty - Catching Yellow Belly (In The Old Barcoo)
TTITLE1=Slim Dusty - Stock Horses
TTITLE2=Slim Dusty - It Takes A Drought
TTITLE3=Slim Dusty - Hard Hard Country
TTITLE4=Slim Dusty - Keeroongooloo Station
TTITLE5=Slim Dusty With Anne Kirkpatrick - Drovin'
TTITLE6=Slim Dusty - Campfire Yarn
TTITLE7=Slim Dusty - When Snowy Sings Of Home
TTITLE8=Slim Dusty - Camooweal
TTITLE9=Slim Dusty - My Time
TTITLE10=Slim Dusty - The Front Row
TTITLE11=Slim Dusty - Some Things A Man Can't Fight
TTITLE12=Slim Dusty - No Place On Earth Like Australia
TTITLE13=Slim Dusty - Plains Of Peppimenarti
TTITLE14=Slim Dusty - The Foxleigh Rodeo
TTITLE15=Slim Dusty With Joy McKean - Morning Mail
TTITLE16=Slim Dusty - End Of The Canning Stock Route
TTITLE17=Slim Dusty - King Of Kalgoorlie
TTITLE18=Slim Dusty - The Pubs Still Make A Quid
TTITLE19=Slim Dusty - Pushin' Time
EXTD=1992 EMI Music Australia
EXTT0=
EXTT1=
EXTT2=
EXTT3=
EXTT4=
EXTT5=
EXTT6=
EXTT7=
EXTT8=
EXTT9=
EXTT10=
EXTT11=
EXTT12=
EXTT13=
EXTT14=
EXTT15=
EXTT16=
EXTT17=
EXTT18=
EXTT19=
PLAYORDER=
